<svg width="17" height="24" viewBox="0 0 17 24" fill="none" xmlns="http://www.w3.org/2000/svg">
<path d="M1.366 24C1.146 24 0.959 23.923 0.805 23.769C0.651 23.615 0.574 23.428 0.574 23.208V1.725C0.574 1.483 0.64 1.285 0.772 1.131C0.926 0.976999 1.124 0.899998 1.366 0.899998H15.886C16.128 0.899998 16.326 0.976999 16.48 1.131C16.634 1.285 16.711 1.483 16.711 1.725V3.903C16.711 4.145 16.634 4.343 16.48 4.497C16.326 4.629 16.128 4.695 15.886 4.695H5.029V10.536H15.16C15.402 10.536 15.6 10.613 15.754 10.767C15.908 10.899 15.985 11.086 15.985 11.328V13.374C15.985 13.616 15.908 13.814 15.754 13.968C15.6 14.1 15.402 14.166 15.16 14.166H5.029V20.205H16.15C16.392 20.205 16.59 20.282 16.744 20.436C16.898 20.59 16.975 20.788 16.975 21.03V23.208C16.975 23.45 16.898 23.648 16.744 23.802C16.59 23.934 16.392 24 16.15 24H1.366Z" fill="#FF6838"/>
</svg>
